# xmcd CD database file generated by freedbAccess_ocx
#
# Track frame offsets:
#       150
#       12777
#       27517
#       44700
#       55802
#       65485
#       79892
#       96430
#       111745
#       125515
#       139432
#       150740
#       166137
#       177385
#       195035
#       209857
#
# Disc length: 2981 seconds
#
# Revision: 0
# Processed by: cddbd v1.5.2PL0 Copyright (c) Steve Scherf et al.
# Submitted via: CDnGo 2.00
#
DISCID=ef0ba310
DTITLE=ANTONIO AGUILAR - LA VOZ DE MEJICO
DYEAR=1996
DGENRE=MEJICANAS
TTITLE0=TE TRAIGO EN MI CARTERA
TTITLE1=YO,EL AVENTURERO
TTITLE2=JUAN CHARRASQUEADO
TTITLE3=LA CAMA DE PIEDRA
TTITLE4=EL HUERFANO
TTITLE5=MARIA LA BANDIDA
TTITLE6=UN MUNDO RARO
TTITLE7=CABALLO PRIETO AZABACHE
TTITLE8=AY¡CHAVELA
TTITLE9=CORAZON,CORAZON
TTITLE10=SERENATA SIN LUNA
TTITLE11=BALA PERDIDA
TTITLE12=RUEGA POR NOSOTROS
TTITLE13=VALENTE QUINTERO
TTITLE14=EL MAYOR DE LOS DORADOS
TTITLE15=HERACLIO BERNAL
EXTD=
EXTT0=
EXTT1=
EXTT2=
EXTT3=
EXTT4=
EXTT5=
EXTT6=
EXTT7=
EXTT8=
EXTT9=
EXTT10=
EXTT11=
EXTT12=
EXTT13=
EXTT14=
EXTT15=
PLAYORDER=
